<mxfile host="app.diagrams.net" modified="2022-05-13T02:08:59.516Z" agent="5.0 (Macintosh; Intel Mac OS X 10_15_7) AppleWebKit/537.36 (KHTML, like Gecko) Chrome/101.0.4951.41 Safari/537.36" etag="ysmatRKMAgBfh_CHQFRd" version="17.4.6" type="github">
  <diagram id="WyJMgfDM6pz5JmEkkXk2" name="Page-1">
    <mxGraphModel dx="1113" dy="722" grid="1" gridSize="10" guides="1" tooltips="1" connect="1" arrows="1" fold="1" page="1" pageScale="1" pageWidth="850" pageHeight="1100" math="0" shadow="0">
      <root>
        <mxCell id="0" />
        <mxCell id="1" parent="0" />
        <mxCell id="eUF_M8O6vmIzJFxK9sOe-9" value="Back End" style="swimlane;" vertex="1" parent="1">
          <mxGeometry x="80" y="40" width="760" height="930" as="geometry" />
        </mxCell>
        <mxCell id="eUF_M8O6vmIzJFxK9sOe-11" value="" style="rounded=0;whiteSpace=wrap;html=1;" vertex="1" parent="eUF_M8O6vmIzJFxK9sOe-9">
          <mxGeometry x="370" y="740" width="320" height="150" as="geometry" />
        </mxCell>
        <mxCell id="eUF_M8O6vmIzJFxK9sOe-1" value="" style="sketch=0;html=1;dashed=0;whitespace=wrap;fillColor=#2875E2;strokeColor=#ffffff;points=[[0.005,0.63,0],[0.1,0.2,0],[0.9,0.2,0],[0.5,0,0],[0.995,0.63,0],[0.72,0.99,0],[0.5,1,0],[0.28,0.99,0]];shape=mxgraph.kubernetes.icon;prIcon=node" vertex="1" parent="eUF_M8O6vmIzJFxK9sOe-9">
          <mxGeometry x="415" y="780" width="50" height="48" as="geometry" />
        </mxCell>
        <mxCell id="eUF_M8O6vmIzJFxK9sOe-2" value="" style="sketch=0;html=1;dashed=0;whitespace=wrap;fillColor=#2875E2;strokeColor=#ffffff;points=[[0.005,0.63,0],[0.1,0.2,0],[0.9,0.2,0],[0.5,0,0],[0.995,0.63,0],[0.72,0.99,0],[0.5,1,0],[0.28,0.99,0]];shape=mxgraph.kubernetes.icon;prIcon=node" vertex="1" parent="eUF_M8O6vmIzJFxK9sOe-9">
          <mxGeometry x="585" y="780" width="50" height="48" as="geometry" />
        </mxCell>
        <mxCell id="eUF_M8O6vmIzJFxK9sOe-5" style="edgeStyle=orthogonalEdgeStyle;rounded=0;orthogonalLoop=1;jettySize=auto;html=1;" edge="1" parent="eUF_M8O6vmIzJFxK9sOe-9" source="eUF_M8O6vmIzJFxK9sOe-1" target="eUF_M8O6vmIzJFxK9sOe-2">
          <mxGeometry relative="1" as="geometry" />
        </mxCell>
        <mxCell id="eUF_M8O6vmIzJFxK9sOe-3" value="Node Solace 1" style="text;html=1;strokeColor=none;fillColor=none;align=center;verticalAlign=middle;whiteSpace=wrap;rounded=0;" vertex="1" parent="eUF_M8O6vmIzJFxK9sOe-9">
          <mxGeometry x="410" y="840" width="60" height="30" as="geometry" />
        </mxCell>
        <mxCell id="eUF_M8O6vmIzJFxK9sOe-4" value="Node Debezium&amp;nbsp; 1" style="text;html=1;strokeColor=none;fillColor=none;align=center;verticalAlign=middle;whiteSpace=wrap;rounded=0;" vertex="1" parent="eUF_M8O6vmIzJFxK9sOe-9">
          <mxGeometry x="580" y="840" width="60" height="30" as="geometry" />
        </mxCell>
        <mxCell id="eUF_M8O6vmIzJFxK9sOe-6" value="5555" style="text;html=1;strokeColor=none;fillColor=none;align=center;verticalAlign=middle;whiteSpace=wrap;rounded=0;" vertex="1" parent="eUF_M8O6vmIzJFxK9sOe-9">
          <mxGeometry x="490" y="770" width="60" height="30" as="geometry" />
        </mxCell>
        <mxCell id="eUF_M8O6vmIzJFxK9sOe-19" value="" style="sketch=0;html=1;dashed=0;whitespace=wrap;fillColor=#d6e7d6;strokeColor=#81b062;points=[[0.005,0.63,0],[0.1,0.2,0],[0.9,0.2,0],[0.5,0,0],[0.995,0.63,0],[0.72,0.99,0],[0.5,1,0],[0.28,0.99,0]];shape=mxgraph.kubernetes.icon;prIcon=node" vertex="1" parent="eUF_M8O6vmIzJFxK9sOe-9">
          <mxGeometry x="295" y="626" width="50" height="48" as="geometry" />
        </mxCell>
        <mxCell id="eUF_M8O6vmIzJFxK9sOe-20" value="" style="sketch=0;html=1;dashed=0;whitespace=wrap;fillColor=#d6e7d6;strokeColor=#81b062;points=[[0.005,0.63,0],[0.1,0.2,0],[0.9,0.2,0],[0.5,0,0],[0.995,0.63,0],[0.72,0.99,0],[0.5,1,0],[0.28,0.99,0]];shape=mxgraph.kubernetes.icon;prIcon=node" vertex="1" parent="eUF_M8O6vmIzJFxK9sOe-9">
          <mxGeometry x="295" y="530" width="50" height="48" as="geometry" />
        </mxCell>
        <mxCell id="eUF_M8O6vmIzJFxK9sOe-21" value="Node Ingress&amp;nbsp;&lt;br&gt;10.0.56.192" style="text;html=1;strokeColor=none;fillColor=none;align=center;verticalAlign=middle;whiteSpace=wrap;rounded=0;" vertex="1" parent="eUF_M8O6vmIzJFxK9sOe-9">
          <mxGeometry x="272.5" y="588" width="95" height="30" as="geometry" />
        </mxCell>
        <mxCell id="eUF_M8O6vmIzJFxK9sOe-23" value="Node Ingress&amp;nbsp;&lt;br&gt;10.0.56.191" style="text;html=1;strokeColor=none;fillColor=none;align=center;verticalAlign=middle;whiteSpace=wrap;rounded=0;" vertex="1" parent="eUF_M8O6vmIzJFxK9sOe-9">
          <mxGeometry x="272.5" y="680" width="95" height="30" as="geometry" />
        </mxCell>
        <mxCell id="eUF_M8O6vmIzJFxK9sOe-24" value="" style="sketch=0;html=1;dashed=0;whitespace=wrap;fillColor=#d6e7d6;strokeColor=#81b062;points=[[0.005,0.63,0],[0.1,0.2,0],[0.9,0.2,0],[0.5,0,0],[0.995,0.63,0],[0.72,0.99,0],[0.5,1,0],[0.28,0.99,0]];shape=mxgraph.kubernetes.icon;prIcon=node" vertex="1" parent="eUF_M8O6vmIzJFxK9sOe-9">
          <mxGeometry x="297.5" y="430" width="50" height="48" as="geometry" />
        </mxCell>
        <mxCell id="eUF_M8O6vmIzJFxK9sOe-25" value="Node Infra&lt;br&gt;10.0.56.195" style="text;html=1;strokeColor=none;fillColor=none;align=center;verticalAlign=middle;whiteSpace=wrap;rounded=0;" vertex="1" parent="eUF_M8O6vmIzJFxK9sOe-9">
          <mxGeometry x="275" y="490" width="95" height="30" as="geometry" />
        </mxCell>
        <mxCell id="eUF_M8O6vmIzJFxK9sOe-31" style="edgeStyle=orthogonalEdgeStyle;rounded=0;orthogonalLoop=1;jettySize=auto;html=1;entryX=0.005;entryY=0.63;entryDx=0;entryDy=0;entryPerimeter=0;" edge="1" parent="eUF_M8O6vmIzJFxK9sOe-9" source="eUF_M8O6vmIzJFxK9sOe-26" target="eUF_M8O6vmIzJFxK9sOe-20">
          <mxGeometry relative="1" as="geometry" />
        </mxCell>
        <mxCell id="eUF_M8O6vmIzJFxK9sOe-32" style="edgeStyle=orthogonalEdgeStyle;rounded=0;orthogonalLoop=1;jettySize=auto;html=1;entryX=0.005;entryY=0.63;entryDx=0;entryDy=0;entryPerimeter=0;" edge="1" parent="eUF_M8O6vmIzJFxK9sOe-9" source="eUF_M8O6vmIzJFxK9sOe-26" target="eUF_M8O6vmIzJFxK9sOe-19">
          <mxGeometry relative="1" as="geometry" />
        </mxCell>
        <mxCell id="eUF_M8O6vmIzJFxK9sOe-36" style="edgeStyle=orthogonalEdgeStyle;rounded=0;orthogonalLoop=1;jettySize=auto;html=1;entryX=0;entryY=0.5;entryDx=0;entryDy=0;" edge="1" parent="eUF_M8O6vmIzJFxK9sOe-9" source="eUF_M8O6vmIzJFxK9sOe-26" target="eUF_M8O6vmIzJFxK9sOe-33">
          <mxGeometry relative="1" as="geometry">
            <Array as="points">
              <mxPoint x="90" y="80" />
            </Array>
          </mxGeometry>
        </mxCell>
        <mxCell id="eUF_M8O6vmIzJFxK9sOe-26" value="Virtual IP&lt;br&gt;External&lt;br&gt;MetalLB" style="rounded=0;whiteSpace=wrap;html=1;strokeColor=#81b062;fillColor=#d6e7d6;" vertex="1" parent="eUF_M8O6vmIzJFxK9sOe-9">
          <mxGeometry x="50" y="530" width="120" height="60" as="geometry" />
        </mxCell>
        <mxCell id="eUF_M8O6vmIzJFxK9sOe-29" value="10.0.56.204" style="text;html=1;strokeColor=none;fillColor=none;align=center;verticalAlign=middle;whiteSpace=wrap;rounded=0;" vertex="1" parent="eUF_M8O6vmIzJFxK9sOe-9">
          <mxGeometry x="80" y="588" width="60" height="30" as="geometry" />
        </mxCell>
        <mxCell id="eUF_M8O6vmIzJFxK9sOe-33" value="Virtual IP&lt;br&gt;Internal&lt;br&gt;MetalLB" style="rounded=0;whiteSpace=wrap;html=1;strokeColor=#81b062;fillColor=#d6e7d6;" vertex="1" parent="eUF_M8O6vmIzJFxK9sOe-9">
          <mxGeometry x="615" y="50" width="120" height="60" as="geometry" />
        </mxCell>
        <mxCell id="eUF_M8O6vmIzJFxK9sOe-35" value="10.0.56.205" style="text;html=1;strokeColor=none;fillColor=none;align=center;verticalAlign=middle;whiteSpace=wrap;rounded=0;" vertex="1" parent="eUF_M8O6vmIzJFxK9sOe-9">
          <mxGeometry x="645" y="110" width="60" height="30" as="geometry" />
        </mxCell>
        <mxCell id="eUF_M8O6vmIzJFxK9sOe-10" value="Internal" style="swimlane;" vertex="1" parent="1">
          <mxGeometry x="840" y="40" width="290" height="930" as="geometry" />
        </mxCell>
        <mxCell id="eUF_M8O6vmIzJFxK9sOe-12" value="" style="aspect=fixed;perimeter=ellipsePerimeter;html=1;align=center;shadow=0;dashed=0;spacingTop=3;image;image=img/lib/active_directory/generic_server.svg;" vertex="1" parent="eUF_M8O6vmIzJFxK9sOe-10">
          <mxGeometry x="131" y="410" width="28.000000000000004" height="50" as="geometry" />
        </mxCell>
        <mxCell id="eUF_M8O6vmIzJFxK9sOe-13" value="SOA" style="text;html=1;strokeColor=none;fillColor=none;align=center;verticalAlign=middle;whiteSpace=wrap;rounded=0;" vertex="1" parent="eUF_M8O6vmIzJFxK9sOe-10">
          <mxGeometry x="115" y="460" width="60" height="30" as="geometry" />
        </mxCell>
        <mxCell id="eUF_M8O6vmIzJFxK9sOe-14" value="" style="aspect=fixed;perimeter=ellipsePerimeter;html=1;align=center;shadow=0;dashed=0;spacingTop=3;image;image=img/lib/active_directory/database_server.svg;" vertex="1" parent="eUF_M8O6vmIzJFxK9sOe-10">
          <mxGeometry x="124.5" y="270" width="41" height="50" as="geometry" />
        </mxCell>
        <mxCell id="eUF_M8O6vmIzJFxK9sOe-15" value="CSF" style="text;html=1;strokeColor=none;fillColor=none;align=center;verticalAlign=middle;whiteSpace=wrap;rounded=0;" vertex="1" parent="eUF_M8O6vmIzJFxK9sOe-10">
          <mxGeometry x="115" y="330" width="60" height="30" as="geometry" />
        </mxCell>
        <mxCell id="eUF_M8O6vmIzJFxK9sOe-17" value="1433" style="text;html=1;strokeColor=none;fillColor=none;align=center;verticalAlign=middle;whiteSpace=wrap;rounded=0;" vertex="1" parent="eUF_M8O6vmIzJFxK9sOe-10">
          <mxGeometry x="20" y="260" width="60" height="30" as="geometry" />
        </mxCell>
      </root>
    </mxGraphModel>
  </diagram>
</mxfile>
